<svg width="40" height="40" viewBox="0 0 40 40" fill="none" xmlns="http://www.w3.org/2000/svg">
    <circle cx="20" cy="20" r="20" fill="#F4D5D2"/>
    <mask id="qjbuu58fma" style="mask-type:alpha" maskUnits="userSpaceOnUse" x="8" y="8" width="24" height="24">
        <path fill="#3F3F3F" d="M8 8h24v24H8z"/>
    </mask>
    <g mask="url(#qjbuu58fma)">
        <path d="M19 29v-2h8v-7.1c0-.967-.183-1.875-.55-2.725a7.078 7.078 0 0 0-1.5-2.225 7.078 7.078 0 0 0-2.225-1.5A6.805 6.805 0 0 0 20 12.9c-.967 0-1.875.183-2.725.55a7.078 7.078 0 0 0-2.225 1.5 7.078 7.078 0 0 0-1.5 2.225A6.805 6.805 0 0 0 13 19.9V26h-1c-.55 0-1.02-.196-1.412-.587A1.926 1.926 0 0 1 10 24v-2c0-.383.092-.72.275-1.012.183-.292.425-.53.725-.713l.075-1.325c.15-1.217.496-2.317 1.038-3.3a8.785 8.785 0 0 1 2.024-2.5 9.1 9.1 0 0 1 2.726-1.588A8.93 8.93 0 0 1 20 11c1.1 0 2.154.188 3.163.563a8.802 8.802 0 0 1 2.712 1.6c.8.691 1.47 1.524 2.012 2.5.542.974.888 2.062 1.038 3.262l.075 1.3c.3.15.542.37.725.662.183.292.275.613.275.963v2.3c0 .367-.092.692-.275.975-.183.283-.425.5-.725.65V27c0 .55-.196 1.02-.587 1.413A1.926 1.926 0 0 1 27 29h-8zm-2-7a.968.968 0 0 1-.712-.288A.968.968 0 0 1 16 21c0-.283.096-.52.288-.712A.968.968 0 0 1 17 20c.283 0 .52.096.712.288.192.191.288.429.288.712s-.096.52-.288.712A.968.968 0 0 1 17 22zm6 0a.968.968 0 0 1-.712-.288A.968.968 0 0 1 22 21c0-.283.096-.52.288-.712A.968.968 0 0 1 23 20c.283 0 .52.096.712.288.192.191.288.429.288.712s-.096.52-.288.712A.968.968 0 0 1 23 22zm-8.975-1.55c-.067-.983.07-1.875.412-2.675.342-.8.8-1.48 1.376-2.037A6.051 6.051 0 0 1 17.8 14.45c.75-.3 1.5-.45 2.25-.45 1.517 0 2.83.48 3.938 1.438s1.779 2.154 2.012 3.587c-1.567-.017-2.983-.438-4.25-1.262-1.267-.826-2.225-1.896-2.875-3.213a7.985 7.985 0 0 1-1.688 3.587 7.78 7.78 0 0 1-3.162 2.313z" fill="#3F3F3F"/>
    </g>
</svg>
