<svg width="24" height="24" viewBox="0 0 24 24" fill="none" xmlns="http://www.w3.org/2000/svg">
    <mask id="xy2e1odwpa" style="mask-type:alpha" maskUnits="userSpaceOnUse" x="0" y="0" width="24" height="24">
        <path fill="#D9D9D9" d="M0 0h24v24H0z"/>
    </mask>
    <g mask="url(#xy2e1odwpa)">
        <path d="M12 6a.48.48 0 0 1-.35-.15.48.48 0 0 1 0-.7.48.48 0 0 1 .7 0 .48.48 0 0 1 0 .7A.48.48 0 0 1 12 6zm2 0a.48.48 0 0 1-.35-.15.48.48 0 0 1 0-.7.48.48 0 0 1 .7 0 .48.48 0 0 1 0 .7A.48.48 0 0 1 14 6zm-4 0a.48.48 0 0 1-.35-.15.48.48 0 0 1 0-.7.48.48 0 0 1 .7 0 .48.48 0 0 1 0 .7A.48.48 0 0 1 10 6zm7 1a.48.48 0 0 1-.35-.15.48.48 0 0 1 0-.7.48.48 0 0 1 .7 0 .48.48 0 0 1 0 .7A.48.48 0 0 1 17 7zM9 7a.48.48 0 0 1-.35-.15.48.48 0 0 1 0-.7.48.48 0 0 1 .7 0 .48.48 0 0 1 0 .7A.48.48 0 0 1 9 7zM7 7a.48.48 0 0 1-.35-.15.48.48 0 0 1 0-.7.48.48 0 0 1 .7 0 .48.48 0 0 1 0 .7A.48.48 0 0 1 7 7zm4 0a.48.48 0 0 1-.35-.15.48.48 0 0 1 0-.7.48.48 0 0 1 .7 0 .48.48 0 0 1 0 .7A.48.48 0 0 1 11 7zm2 0a.48.48 0 0 1-.35-.15.48.48 0 0 1 0-.7.48.48 0 0 1 .7 0 .48.48 0 0 1 0 .7A.48.48 0 0 1 13 7zm2 0a.48.48 0 0 1-.35-.15.48.48 0 0 1 0-.7.48.48 0 0 1 .7 0 .48.48 0 0 1 0 .7A.48.48 0 0 1 15 7zm-3 1a.48.48 0 0 1-.35-.15.48.48 0 0 1 0-.7.48.48 0 0 1 .7 0 .48.48 0 0 1 0 .7A.48.48 0 0 1 12 8zm2 0a.48.48 0 0 1-.35-.15.48.48 0 0 1 0-.7.48.48 0 0 1 .7 0 .48.48 0 0 1 0 .7A.48.48 0 0 1 14 8zm2 0a.48.48 0 0 1-.35-.15.48.48 0 0 1 0-.7.48.48 0 0 1 .7 0 .48.48 0 0 1 0 .7A.48.48 0 0 1 16 8zm-6 0a.48.48 0 0 1-.35-.15.48.48 0 0 1 0-.7.48.48 0 0 1 .7 0 .48.48 0 0 1 0 .7A.48.48 0 0 1 10 8zM8 8a.48.48 0 0 1-.35-.15.48.48 0 0 1 0-.7.48.48 0 0 1 .7 0 .48.48 0 0 1 0 .7A.48.48 0 0 1 8 8zm1 1a.48.48 0 0 1-.35-.15.48.48 0 0 1 0-.7.48.48 0 0 1 .7 0 .48.48 0 0 1 0 .7A.48.48 0 0 1 9 9zM7 9a.48.48 0 0 1-.35-.15.48.48 0 0 1 0-.7.48.48 0 0 1 .7 0 .48.48 0 0 1 0 .7A.48.48 0 0 1 7 9zm4 0a.48.48 0 0 1-.35-.15.48.48 0 0 1 0-.7.48.48 0 0 1 .7 0 .48.48 0 0 1 0 .7A.48.48 0 0 1 11 9zm2 0a.48.48 0 0 1-.35-.15.48.48 0 0 1 0-.7.48.48 0 0 1 .7 0 .48.48 0 0 1 0 .7A.48.48 0 0 1 13 9zm2 0a.48.48 0 0 1-.35-.15.48.48 0 0 1 0-.7.48.48 0 0 1 .7 0 .48.48 0 0 1 0 .7A.48.48 0 0 1 15 9zm2 0a.48.48 0 0 1-.35-.15.48.48 0 0 1 0-.7.48.48 0 0 1 .7 0 .48.48 0 0 1 0 .7A.48.48 0 0 1 17 9zM5 9a.48.48 0 0 1-.35-.15.48.48 0 0 1 0-.7.48.48 0 0 1 .7 0 .48.48 0 0 1 0 .7A.48.48 0 0 1 5 9zm1-1a.48.48 0 0 1-.35-.15.48.48 0 0 1 0-.7.48.48 0 0 1 .7 0 .48.48 0 0 1 0 .7A.48.48 0 0 1 6 8zm2-2a.48.48 0 0 1-.35-.15.48.48 0 0 1 0-.7.48.48 0 0 1 .7 0 .48.48 0 0 1 0 .7A.48.48 0 0 1 8 6zm1-1a.48.48 0 0 1-.35-.15.48.48 0 0 1 0-.7.48.48 0 0 1 .7 0 .48.48 0 0 1 0 .7A.48.48 0 0 1 9 5zm2 0a.48.48 0 0 1-.35-.15.48.48 0 0 1 0-.7.48.48 0 0 1 .7 0 .48.48 0 0 1 0 .7A.48.48 0 0 1 11 5zm2 0a.48.48 0 0 1-.35-.15.48.48 0 0 1 0-.7.48.48 0 0 1 .7 0 .48.48 0 0 1 0 .7A.48.48 0 0 1 13 5zm2 0a.48.48 0 0 1-.35-.15.48.48 0 0 1 0-.7.48.48 0 0 1 .7 0 .48.48 0 0 1 0 .7A.48.48 0 0 1 15 5zm1 1a.48.48 0 0 1-.35-.15.48.48 0 0 1 0-.7.48.48 0 0 1 .7 0 .48.48 0 0 1 0 .7A.48.48 0 0 1 16 6zm2 2a.48.48 0 0 1-.35-.15.48.48 0 0 1 0-.7.48.48 0 0 1 .7 0 .48.48 0 0 1 0 .7A.48.48 0 0 1 18 8zm1 1a.48.48 0 0 1-.35-.15.48.48 0 0 1 0-.7.48.48 0 0 1 .7 0 .48.48 0 0 1 0 .7A.48.48 0 0 1 19 9zM9 14.25c-.35 0-.646-.12-.887-.363A1.207 1.207 0 0 1 7.75 13c0-.35.12-.646.363-.887.241-.242.537-.363.887-.363s.646.12.887.363c.242.241.363.537.363.887s-.12.646-.363.887A1.207 1.207 0 0 1 9 14.25zm6 0c-.35 0-.646-.12-.887-.363A1.207 1.207 0 0 1 13.75 13c0-.35.12-.646.363-.887.241-.242.537-.363.887-.363s.646.12.887.363c.242.241.363.537.363.887s-.12.646-.363.887a1.207 1.207 0 0 1-.887.363zM12 22a9.676 9.676 0 0 1-3.875-.788 10.144 10.144 0 0 1-3.188-2.15 10.142 10.142 0 0 1-2.15-3.187A9.676 9.676 0 0 1 2 12c0-1.383.263-2.683.788-3.9a9.994 9.994 0 0 1 2.15-3.175 10.25 10.25 0 0 1 3.187-2.137A9.676 9.676 0 0 1 12 2c1.383 0 2.683.263 3.9.788a10.098 10.098 0 0 1 3.175 2.137c.9.9 1.613 1.958 2.137 3.175A9.738 9.738 0 0 1 22 12a9.676 9.676 0 0 1-.788 3.875 10.25 10.25 0 0 1-2.137 3.188 9.994 9.994 0 0 1-3.175 2.15A9.738 9.738 0 0 1 12 22zm0-2c2.233 0 4.125-.78 5.675-2.337C19.225 16.104 20 14.217 20 12c0-2.233-.775-4.125-2.325-5.675C16.125 4.775 14.233 4 12 4c-2.217 0-4.104.775-5.662 2.325C4.779 7.875 4 9.767 4 12c0 2.217.78 4.104 2.338 5.663C7.896 19.22 9.783 20 12 20z" fill="#F9ACAC"/>
    </g>
</svg>
