<svg width="24" height="24" viewBox="0 0 24 24" fill="none" xmlns="http://www.w3.org/2000/svg">
    <mask id="4mj4cxyk2a" style="mask-type:alpha" maskUnits="userSpaceOnUse" x="0" y="0" width="24" height="24">
        <path fill="#D9D9D9" d="M0 0h24v24H0z"/>
    </mask>
    <g mask="url(#4mj4cxyk2a)">
        <path d="m12 21-1.45-1.3c-1.683-1.516-3.075-2.825-4.175-3.925-1.1-1.1-1.975-2.087-2.625-2.962-.65-.875-1.104-1.68-1.362-2.413A6.726 6.726 0 0 1 2 8.15c0-1.566.525-2.875 1.575-3.925C4.625 3.175 5.933 2.65 7.5 2.65c.867 0 1.692.184 2.475.55A5.93 5.93 0 0 1 12 4.75a5.93 5.93 0 0 1 2.025-1.55 5.769 5.769 0 0 1 2.475-.55c1.567 0 2.875.525 3.925 1.575C21.475 5.275 22 6.584 22 8.15c0 .767-.13 1.517-.387 2.25-.259.734-.713 1.538-1.363 2.413-.65.875-1.525 1.862-2.625 2.962s-2.492 2.409-4.175 3.925L12 21z" fill="#F9ACAC"/>
    </g>
</svg>
